<mxfile host="app.diagrams.net" modified="2024-01-03T10:50:06.855Z" agent="Mozilla/5.0 (Windows NT 10.0; Win64; x64; rv:102.0) Gecko/20100101 Firefox/102.0" version="22.1.16" etag="xCZ_Ma5iENVRv-Om3rfg" type="github">
  <diagram name="Page-1" id="mI9iQHq9Ga2JHR_YVcRe">
    <mxGraphModel>
      <root>
        <mxCell id="0" />
        <mxCell id="1" parent="0" />
      </root>
    </mxGraphModel>
  </diagram>
</mxfile>
